STARTFONT 2.1
FONT -gbdfed-Unknown-Medium-R-Normal--16-120-96-96-P-100-FontSpecific-0
SIZE 12 96 96
FONTBOUNDINGBOX 32 64 0 0
STARTPROPERTIES 9
POINT_SIZE 120
PIXEL_SIZE 16
RESOLUTION_X 96
RESOLUTION_Y 96
FONT_ASCENT 64
FONT_DESCENT 0
AVERAGE_WIDTH 32
SPACING "P"
_GBDFED_INFO "Edited with gbdfed 1.6."
ENDPROPERTIES
CHARS 11
STARTCHAR char48
ENCODING 48
SWIDTH 0 0
DWIDTH 0 0
BBX 32 64 0 0
BITMAP
1FFFFFF8
3FFFFFFC
7FFFFFFE
FFFFFFFF
FFFFFFFF
FFFFFFFF
FFFFFFFF
FFFFFFFF
FF8001FF
FF0000FF
FF0000FF
FF0000FF
FF0000FF
FF0000FF
FF0000FF
FF0000FF
FF0000FF
FF0000FF
FF0000FF
FF0000FF
FF0000FF
FF0000FF
FF0000FF
FF0000FF
FF0000FF
FF0000FF
FF0000FF
FF0000FF
FF0000FF
FF0000FF
FF0000FF
FF0000FF
FF0000FF
FF0000FF
FF0000FF
FF0000FF
FF0000FF
FF0000FF
FF0000FF
FF0000FF
FF0000FF
FF0000FF
FF0000FF
FF0000FF
FF0000FF
FF0000FF
FF0000FF
FF0000FF
FF0000FF
FF0000FF
FF0000FF
FF0000FF
FF0000FF
FF0000FF
FF0000FF
FF8001FF
FFFFFFFF
FFFFFFFF
FFFFFFFF
FFFFFFFF
FFFFFFFF
7FFFFFFE
3FFFFFFC
1FFFFFF8
ENDCHAR
STARTCHAR char49
ENCODING 49
SWIDTH 2000 0
DWIDTH 32 0
BBX 16 64 16 0
BITMAP
01FF
03FF
07FF
0FFF
1FFF
3FFF
7FFF
FFFF
00FF
00FF
00FF
00FF
00FF
00FF
00FF
00FF
00FF
00FF
00FF
00FF
00FF
00FF
00FF
00FF
00FF
00FF
00FF
00FF
00FF
00FF
00FF
00FF
00FF
00FF
00FF
00FF
00FF
00FF
00FF
00FF
00FF
00FF
00FF
00FF
00FF
00FF
00FF
00FF
00FF
00FF
00FF
00FF
00FF
00FF
00FF
00FF
00FF
00FF
00FF
00FF
00FF
00FF
00FF
00FF
ENDCHAR
STARTCHAR char50
ENCODING 50
SWIDTH 0 0
DWIDTH 0 0
BBX 32 64 0 0
BITMAP
FFFFFFF8
FFFFFFFC
FFFFFFFE
FFFFFFFF
FFFFFFFF
FFFFFFFF
FFFFFFFF
FFFFFFFF
000001FF
000000FF
000000FF
000000FF
000000FF
000000FF
000000FF
000000FF
000000FF
000000FF
000000FF
000000FF
000000FF
000000FF
000000FF
000000FF
000000FF
000000FF
000000FF
000001FF
1FFFFFFF
3FFFFFFF
7FFFFFFF
FFFFFFFF
FFFFFFFF
FFFFFFFE
FFFFFFFC
FFFFFFF8
FF800000
FF000000
FF000000
FF000000
FF000000
FF000000
FF000000
FF000000
FF000000
FF000000
FF000000
FF000000
FF000000
FF000000
FF000000
FF000000
FF000000
FF000000
FF000000
FF000000
FFFFFFFF
FFFFFFFF
FFFFFFFF
FFFFFFFF
FFFFFFFF
FFFFFFFF
FFFFFFFF
FFFFFFFF
ENDCHAR
STARTCHAR char51
ENCODING 51
SWIDTH 250 0
DWIDTH 4 0
BBX 32 64 0 0
BITMAP
FFFFFFF8
FFFFFFFC
FFFFFFFE
FFFFFFFF
FFFFFFFF
FFFFFFFF
FFFFFFFF
FFFFFFFF
000001FF
000000FF
000000FF
000000FF
000000FF
000000FF
000000FF
000000FF
000000FF
000000FF
000000FF
000000FF
000000FF
000000FF
000000FF
000000FF
000000FF
000000FF
000000FF
000001FF
00FFFFFF
00FFFFFE
00FFFFFC
00FFFFF8
00FFFFF8
00FFFFFC
00FFFFFE
00FFFFFF
000001FF
000000FF
000000FF
000000FF
000000FF
000000FF
000000FF
000000FF
000000FF
000000FF
000000FF
000000FF
000000FF
000000FF
000000FF
000000FF
000000FF
000000FF
000000FF
000001FF
FFFFFFFF
FFFFFFFF
FFFFFFFF
FFFFFFFF
FFFFFFFF
FFFFFFFE
FFFFFFFC
FFFFFFF8
ENDCHAR
STARTCHAR char52
ENCODING 52
SWIDTH 0 0
DWIDTH 0 0
BBX 32 64 0 0
BITMAP
FF0000FF
FF0000FF
FF0000FF
FF0000FF
FF0000FF
FF0000FF
FF0000FF
FF0000FF
FF0000FF
FF0000FF
FF0000FF
FF0000FF
FF0000FF
FF0000FF
FF0000FF
FF0000FF
FF0000FF
FF0000FF
FF0000FF
FF0000FF
FF0000FF
FF0000FF
FF0000FF
FF0000FF
FF0000FF
FF0000FF
FF0000FF
FF8000FF
FFFFFFFF
FFFFFFFF
FFFFFFFF
FFFFFFFF
FFFFFFFF
7FFFFFFF
3FFFFFFF
1FFFFFFF
000000FF
000000FF
000000FF
000000FF
000000FF
000000FF
000000FF
000000FF
000000FF
000000FF
000000FF
000000FF
000000FF
000000FF
000000FF
000000FF
000000FF
000000FF
000000FF
000000FF
000000FF
000000FF
000000FF
000000FF
000000FF
000000FF
000000FF
000000FF
ENDCHAR
STARTCHAR char53
ENCODING 53
SWIDTH 2000 0
DWIDTH 32 0
BBX 32 64 0 0
BITMAP
FFFFFFFF
FFFFFFFF
FFFFFFFF
FFFFFFFF
FFFFFFFF
FFFFFFFF
FFFFFFFF
FFFFFFFF
FF000000
FF000000
FF000000
FF000000
FF000000
FF000000
FF000000
FF000000
FF000000
FF000000
FF000000
FF000000
FF000000
FF000000
FF000000
FF000000
FF000000
FF000000
FF000000
FF000000
FFFFFFF8
FFFFFFFC
FFFFFFFE
FFFFFFFF
FFFFFFFF
FFFFFFFF
FFFFFFFF
FFFFFFFF
000001FF
000000FF
000000FF
000000FF
000000FF
000000FF
000000FF
000000FF
000000FF
000000FF
000000FF
000000FF
000000FF
000000FF
000000FF
000000FF
000000FF
000000FF
000000FF
000001FF
FFFFFFFF
FFFFFFFF
FFFFFFFF
FFFFFFFF
FFFFFFFF
FFFFFFFE
FFFFFFFC
FFFFFFF8
ENDCHAR
STARTCHAR char54
ENCODING 54
SWIDTH 0 0
DWIDTH 0 0
BBX 32 64 0 0
BITMAP
1FFFFFFF
3FFFFFFF
7FFFFFFF
FFFFFFFF
FFFFFFFF
FFFFFFFF
FFFFFFFF
FFFFFFFF
FF800000
FF000000
FF000000
FF000000
FF000000
FF000000
FF000000
FF000000
FF000000
FF000000
FF000000
FF000000
FF000000
FF000000
FF000000
FF000000
FF000000
FF000000
FF000000
FF800000
FFFFFFF8
FFFFFFFC
FFFFFFFE
FFFFFFFF
FFFFFFFF
FFFFFFFF
FFFFFFFF
FFFFFFFF
FF8001FF
FF0000FF
FF0000FF
FF0000FF
FF0000FF
FF0000FF
FF0000FF
FF0000FF
FF0000FF
FF0000FF
FF0000FF
FF0000FF
FF0000FF
FF0000FF
FF0000FF
FF0000FF
FF0000FF
FF0000FF
FF0000FF
FF8001FF
FFFFFFFF
FFFFFFFF
FFFFFFFF
FFFFFFFF
FFFFFFFF
7FFFFFFE
3FFFFFFC
1FFFFFF8
ENDCHAR
STARTCHAR char55
ENCODING 55
SWIDTH 2000 0
DWIDTH 32 0
BBX 32 64 0 0
BITMAP
FFFFFFFF
FFFFFFFF
FFFFFFFF
FFFFFFFF
FFFFFFFF
FFFFFFFF
FFFFFFFF
FFFFFFFF
000000FF
000000FF
000000FF
000000FF
000000FF
000000FF
000000FF
000000FF
000000FF
000000FF
000000FF
000000FF
000000FF
000000FF
000000FF
000000FF
000000FF
000000FF
000000FF
000000FF
000000FF
000000FF
000000FF
000000FF
000000FF
000000FF
000000FF
000000FF
000000FF
000000FF
000000FF
000000FF
000000FF
000000FF
000000FF
000000FF
000000FF
000000FF
000000FF
000000FF
000000FF
000000FF
000000FF
000000FF
000000FF
000000FF
000000FF
000000FF
000000FF
000000FF
000000FF
000000FF
000000FF
000000FF
000000FF
000000FF
ENDCHAR
STARTCHAR char56
ENCODING 56
SWIDTH 0 0
DWIDTH 0 0
BBX 32 64 0 0
BITMAP
1FFFFFF8
3FFFFFFC
7FFFFFFE
FFFFFFFF
FFFFFFFF
FFFFFFFF
FFFFFFFF
FFFFFFFF
FF8001FF
FF0000FF
FF0000FF
FF0000FF
FF0000FF
FF0000FF
FF0000FF
FF0000FF
FF0000FF
FF0000FF
FF0000FF
FF0000FF
FF0000FF
FF0000FF
FF0000FF
FF0000FF
FF0000FF
FF0000FF
FF0000FF
FF8001FF
FFFFFFFF
7FFFFFFE
3FFFFFFC
1FFFFFF8
1FFFFFF8
3FFFFFFC
7FFFFFFE
FFFFFFFF
FF8001FF
FF0000FF
FF0000FF
FF0000FF
FF0000FF
FF0000FF
FF0000FF
FF0000FF
FF0000FF
FF0000FF
FF0000FF
FF0000FF
FF0000FF
FF0000FF
FF0000FF
FF0000FF
FF0000FF
FF0000FF
FF0000FF
FF8001FF
FFFFFFFF
FFFFFFFF
FFFFFFFF
FFFFFFFF
FFFFFFFF
7FFFFFFE
3FFFFFFC
1FFFFFF8
ENDCHAR
STARTCHAR char57
ENCODING 57
SWIDTH 0 0
DWIDTH 0 0
BBX 32 64 0 0
BITMAP
1FFFFFF8
3FFFFFFC
7FFFFFFE
FFFFFFFF
FFFFFFFF
FFFFFFFF
FFFFFFFF
FFFFFFFF
FF8001FF
FF0000FF
FF0000FF
FF0000FF
FF0000FF
FF0000FF
FF0000FF
FF0000FF
FF0000FF
FF0000FF
FF0000FF
FF0000FF
FF0000FF
FF0000FF
FF0000FF
FF0000FF
FF0000FF
FF0000FF
FF0000FF
FF8000FF
FFFFFFFF
FFFFFFFF
FFFFFFFF
FFFFFFFF
FFFFFFFF
7FFFFFFF
3FFFFFFF
1FFFFFFF
000000FF
000000FF
000000FF
000000FF
000000FF
000000FF
000000FF
000000FF
000000FF
000000FF
000000FF
000000FF
000000FF
000000FF
000000FF
000000FF
000000FF
000000FF
000000FF
000001FF
FFFFFFFF
FFFFFFFF
FFFFFFFF
FFFFFFFF
FFFFFFFF
FFFFFFFE
FFFFFFFC
FFFFFFF8
ENDCHAR
STARTCHAR char58
ENCODING 58
SWIDTH 500 0
DWIDTH 8 0
BBX 8 24 0 20
BITMAP
FF
FF
FF
FF
FF
FF
FF
FF
00
00
00
00
00
00
00
00
FF
FF
FF
FF
FF
FF
FF
FF
ENDCHAR
ENDFONT
